<?xml version="1.0" encoding="UTF-8"?>
<svg xmlns="http://www.w3.org/2000/svg" xmlns:xlink="http://www.w3.org/1999/xlink" width="17.24pt" height="30.178pt" viewBox="0 0 17.24 30.178" version="1.2">
<g id="surface1">
<path style=" stroke:none;fill-rule:nonzero;fill:rgb(0%,0%,100%);fill-opacity:1;" d="M 5.273438 20.003906 L 11.238281 20.003906 L 11.238281 11.058594 L 5.273438 11.058594 Z M 5.273438 20.003906 "/>
<path style=" stroke:none;fill-rule:nonzero;fill:rgb(0%,0%,100%);fill-opacity:1;" d="M 11.835938 7.242188 C 11.835938 5.265625 10.230469 3.664063 8.257813 3.664063 C 6.28125 3.664063 4.679688 5.265625 4.679688 7.242188 C 4.679688 9.21875 6.28125 10.820313 8.257813 10.820313 C 10.230469 10.820313 11.835938 9.21875 11.835938 7.242188 Z M 11.835938 7.242188 "/>
<path style=" stroke:none;fill-rule:nonzero;fill:rgb(0%,0%,100%);fill-opacity:1;" d="M 7.210938 20.003906 L 6.226563 20.003906 C 5.703125 20.003906 5.273438 20.429688 5.273438 20.957031 L 5.273438 25.011719 C 5.273438 25.539063 5.703125 25.96875 6.226563 25.96875 L 7.210938 25.96875 C 7.738281 25.96875 8.167969 25.539063 8.167969 25.011719 L 8.167969 20.957031 C 8.167969 20.429688 7.738281 20.003906 7.210938 20.003906 Z M 7.210938 20.003906 "/>
<path style=" stroke:none;fill-rule:nonzero;fill:rgb(0%,0%,100%);fill-opacity:1;" d="M 5.273438 23.582031 L 8.167969 23.582031 L 8.167969 20.003906 L 5.273438 20.003906 Z M 5.273438 23.582031 "/>
<path style=" stroke:none;fill-rule:nonzero;fill:rgb(0%,0%,100%);fill-opacity:1;" d="M 10.285156 20.003906 L 9.300781 20.003906 C 8.773438 20.003906 8.34375 20.429688 8.34375 20.957031 L 8.34375 25.011719 C 8.34375 25.539063 8.773438 25.96875 9.300781 25.96875 L 10.285156 25.96875 C 10.8125 25.96875 11.238281 25.539063 11.238281 25.011719 L 11.238281 20.957031 C 11.238281 20.429688 10.8125 20.003906 10.285156 20.003906 Z M 10.285156 20.003906 "/>
<path style=" stroke:none;fill-rule:nonzero;fill:rgb(0%,0%,100%);fill-opacity:1;" d="M 8.34375 23.582031 L 11.238281 23.582031 L 11.238281 20.003906 L 8.34375 20.003906 Z M 8.34375 23.582031 "/>
<path style=" stroke:none;fill-rule:nonzero;fill:rgb(0%,0%,100%);fill-opacity:1;" d="M 12.464844 11.210938 L 12.105469 11.210938 C 11.710938 11.210938 11.390625 11.53125 11.390625 11.925781 L 11.390625 18.246094 C 11.390625 18.644531 11.710938 18.964844 12.105469 18.964844 L 12.464844 18.964844 C 12.859375 18.964844 13.179688 18.644531 13.179688 18.246094 L 13.179688 11.925781 C 13.179688 11.53125 12.859375 11.210938 12.464844 11.210938 Z M 12.464844 11.210938 "/>
<path style=" stroke:none;fill-rule:nonzero;fill:rgb(0%,0%,100%);fill-opacity:1;" d="M 11.390625 15.980469 L 12.582031 15.980469 L 12.582031 11.210938 L 11.390625 11.210938 Z M 11.390625 15.980469 "/>
<path style=" stroke:none;fill-rule:nonzero;fill:rgb(0%,0%,100%);fill-opacity:1;" d="M 4.40625 11.210938 L 4.046875 11.210938 C 3.652344 11.210938 3.332031 11.53125 3.332031 11.925781 L 3.332031 18.246094 C 3.332031 18.644531 3.652344 18.964844 4.046875 18.964844 L 4.40625 18.964844 C 4.800781 18.964844 5.121094 18.644531 5.121094 18.246094 L 5.121094 11.925781 C 5.121094 11.53125 4.800781 11.210938 4.40625 11.210938 Z M 4.40625 11.210938 "/>
<path style=" stroke:none;fill-rule:nonzero;fill:rgb(0%,0%,100%);fill-opacity:1;" d="M 4.226563 15.980469 L 5.121094 15.980469 L 5.121094 11.210938 L 4.226563 11.210938 Z M 4.226563 15.980469 "/>
</g>
</svg>
